<svg xmlns="http://www.w3.org/2000/svg" xmlns:xlink="http://www.w3.org/1999/xlink" width="305.198" height="26.112" viewBox="0 0 305.198 26.112">
  <defs>
    <clipPath id="clip-path">
      <rect id="Rectangle_4" data-name="Rectangle 4" width="305.198" height="26.112" fill="none"/>
    </clipPath>
  </defs>
  <g id="Component_1_1" data-name="Component 1 – 1" opacity="0.996">
    <g id="Group_5" data-name="Group 5" clip-path="url(#clip-path)">
      <path id="Path_3" data-name="Path 3" d="M28.265,8.244C28.265,3.021,24.892,0,19.386,0H2.216A2.175,2.175,0,0,0,0,2.132v23.98H19.386c5.506,0,8.879-3.059,8.879-8.281a8.175,8.175,0,0,0-1.629-4.887,7.71,7.71,0,0,0,1.629-4.7"/>
      <path id="Path_4" data-name="Path 4" d="M41.745,43.817l-.561.661a.286.286,0,0,0-.069.185V46.6a.3.3,0,0,1-.3.293H37.735a.3.3,0,0,1-.3-.293V36.581a.3.3,0,0,1,.3-.293h3.076a.3.3,0,0,1,.3.293v3.161h.11l2.586-3.336a.308.308,0,0,1,.244-.118h3.579a.292.292,0,0,1,.231.483l-3.607,4.057a.284.284,0,0,0-.02.356l3.731,5.249a.293.293,0,0,1-.251.458H44.113a.308.308,0,0,1-.254-.131l-2.035-2.944Z" transform="translate(-28.528 -27.984)" fill="#fff"/>
      <path id="Path_5" data-name="Path 5" d="M12.454,10.682,12.43,9.5a.124.124,0,0,0-.126-.119l-.828-.005a.122.122,0,0,1-.108-.183l.428-.706a.119.119,0,0,0-.047-.167l-1.065-.582a.129.129,0,0,0-.172.045l-.423.7a.129.129,0,0,1-.219,0l-.425-.715a.129.129,0,0,0-.175-.044l-1.046.608a.119.119,0,0,0-.044.165l.411.687a.122.122,0,0,1-.11.183l-.848-.005a.124.124,0,0,0-.127.124l.024,1.182a.124.124,0,0,0,.126.119l.828.005a.122.122,0,0,1,.108.183l-.428.706a.119.119,0,0,0,.047.167l1.065.582a.129.129,0,0,0,.172-.044l.423-.7a.129.129,0,0,1,.219,0l.426.718a.129.129,0,0,0,.176.043l1.03-.614a.119.119,0,0,0,.043-.164l-.405-.686a.122.122,0,0,1,.111-.182l.855.005a.124.124,0,0,0,.127-.124" transform="translate(-5.721 -5.939)" fill="#ef6131"/>
      <path id="Path_6" data-name="Path 6" d="M161.417,28.556a5.992,5.992,0,0,1,.973,3.3c0,3.522-2.016,5.585-5.306,5.585H145.5V19.827h11.584c3.29,0,5.306,2.037,5.306,5.56a5.639,5.639,0,0,1-.973,3.17m-10.5-4.126v1.912H156.3a.885.885,0,0,0,.881-.981.843.843,0,0,0-.881-.931Zm6.256,7.422a.864.864,0,0,0-.881-.956h-5.375v1.937H156.3a.885.885,0,0,0,.881-.981" transform="translate(-110.895 -15.29)" fill="#9f9f9f"/>
      <path id="Path_7" data-name="Path 7" d="M238.166,32.782v4.654H224.312V19.826h5.421V32.782Z" transform="translate(-170.961 -15.289)" fill="#9f9f9f"/>
      <path id="Path_8" data-name="Path 8" d="M300.906,35.65h-5.839l-.44,1.786H289l4.727-17.61h8.526l4.726,17.61h-5.63Zm-1.158-4.7-1.575-6.465H297.8l-1.576,6.465Z" transform="translate(-220.261 -15.29)" fill="#9f9f9f"/>
      <path id="Path_9" data-name="Path 9" d="M445.327,32.329l-.927,1.233v3.874h-5.421V19.827H444.4v5.736h.162l3.939-5.736H454.6L448.8,27.65l6.163,9.786h-6.394l-3.128-5.107Z" transform="translate(-334.572 -15.29)" fill="#9f9f9f"/>
      <path id="Path_10" data-name="Path 10" d="M374.395,32.329l-.927,1.233v3.874h-5.421V19.827h5.421v5.736h.162l3.939-5.736h6.094L377.87,27.65l6.163,9.786h-6.394l-3.128-5.107Z" transform="translate(-280.51 -15.29)" fill="#9f9f9f"/>
      <path id="Path_11" data-name="Path 11" d="M528.662,35.65h-5.839l-.44,1.786h-5.63l4.727-17.61h8.526l4.726,17.61H529.1Zm-1.158-4.7-1.576-6.465h-.371l-1.575,6.465Z" transform="translate(-393.848 -15.29)" fill="#9f9f9f"/>
      <path id="Path_12" data-name="Path 12" d="M602.7,19.827h5.421l6.441,9.157h.162V19.827h5.422v17.61h-5.422L608.3,28.581h-.186v8.855H602.7Z" transform="translate(-459.35 -15.29)" fill="#9f9f9f"/>
      <path id="Path_13" data-name="Path 13" d="M683.223,19.827h5.839L692,32.783h.186l2.942-12.956h5.839l-4.495,17.61h-8.758Z" transform="translate(-520.724 -15.29)" fill="#9f9f9f"/>
      <path id="Path_14" data-name="Path 14" d="M761.767,35.65h-5.839l-.44,1.786h-5.63l4.726-17.61h8.526l4.727,17.61h-5.63Zm-1.159-4.7-1.575-6.465h-.371l-1.576,6.465Z" transform="translate(-571.51 -15.29)" fill="#9f9f9f"/>
      <path id="Path_15" data-name="Path 15" d="M827.628,32.782h8.457c.718,0,1.065-.353,1.065-.931,0-.553-.347-.906-1.089-.906h-3.846c-2.711,0-4.912-2.012-4.912-5.56,0-4.075,2.572-5.56,5.167-5.56h9.592V24.48h-8.271c-.626,0-1.066.252-1.066.881,0,.654.44.931,1.066.931H837.4c3.1,0,5.167,1.987,5.167,5.534a5.284,5.284,0,0,1-5.329,5.61h-9.684Z" transform="translate(-630.536 -15.289)" fill="#9f9f9f"/>
      <path id="Path_16" data-name="Path 16" d="M959.78,70.359a3.811,3.811,0,0,1-.166.438,2.01,2.01,0,0,1-.39.57,2.37,2.37,0,0,1-.722.5,2.766,2.766,0,0,1-1.177.215,4.206,4.206,0,0,1-1.142-.167,3.265,3.265,0,0,1-1.083-.535,2.793,2.793,0,0,1-.8-.966,3.165,3.165,0,0,1-.31-1.473,3,3,0,0,1,.267-1.265,3.235,3.235,0,0,1,.722-1.015,3.317,3.317,0,0,1,1.069-.674,3.521,3.521,0,0,1,1.307-.243,3.737,3.737,0,0,1,.8.09,2.773,2.773,0,0,1,.751.278,1.756,1.756,0,0,1,.563.486,1.183,1.183,0,0,1,.224.73.637.637,0,0,1-.195.479.77.77,0,0,1-.556.188,1.1,1.1,0,0,1-.47-.1.362.362,0,0,1-.224-.354,1.43,1.43,0,0,1,.1-.473,1.4,1.4,0,0,0,.1-.458.539.539,0,0,0-.332-.494,1.631,1.631,0,0,0-.766-.174,3,3,0,0,0-.657.076,1.2,1.2,0,0,0-.621.382,2.313,2.313,0,0,0-.462.917,6.111,6.111,0,0,0-.181,1.668,7.538,7.538,0,0,0,.08,1.126,2.864,2.864,0,0,0,.289.924,1.6,1.6,0,0,0,.578.626,1.8,1.8,0,0,0,.961.229,2.617,2.617,0,0,0,1.047-.181,1.925,1.925,0,0,0,.65-.438,1.89,1.89,0,0,0,.354-.521q.116-.264.173-.431Z" transform="translate(-727.089 -50.7)" fill="#9f9f9f"/>
      <path id="Path_17" data-name="Path 17" d="M982.109,71.787h1.113V66.214h-1.113v-.195h2.326v1.4h.029a2.779,2.779,0,0,1,.188-.473,2.084,2.084,0,0,1,.918-.917,1.707,1.707,0,0,1,.787-.167,1.472,1.472,0,0,1,.578.1,1.261,1.261,0,0,1,.4.264.965.965,0,0,1,.231.368,1.268,1.268,0,0,1,.072.417.709.709,0,0,1-.217.612.854.854,0,0,1-.506.153q-.636,0-.636-.389a.574.574,0,0,1,.029-.2q.029-.077.065-.153a1.251,1.251,0,0,0,.065-.174,1.038,1.038,0,0,0,.029-.278q0-.444-.506-.445a.92.92,0,0,0-.491.167,1.78,1.78,0,0,0-.484.486,3.008,3.008,0,0,0-.376.771,3.245,3.245,0,0,0-.152,1.036v3.183h1.257v.195h-3.612Z" transform="translate(-748.523 -50.794)" fill="#9f9f9f"/>
      <path id="Path_18" data-name="Path 18" d="M1009.383,68.44q0,.139-.007.285t-.007.368a8.313,8.313,0,0,0,.058.959,2.793,2.793,0,0,0,.253.9,1.7,1.7,0,0,0,.578.667,1.762,1.762,0,0,0,1.018.264,2.618,2.618,0,0,0,1.047-.181,1.921,1.921,0,0,0,.65-.438,1.89,1.89,0,0,0,.354-.521q.116-.264.173-.431l.217.041a3.9,3.9,0,0,1-.166.438,2.008,2.008,0,0,1-.39.57,2.369,2.369,0,0,1-.722.5,2.766,2.766,0,0,1-1.177.216,3.9,3.9,0,0,1-1.336-.222,3.067,3.067,0,0,1-1.062-.64,2.88,2.88,0,0,1-.694-.994,3.246,3.246,0,0,1-.245-1.286,2.929,2.929,0,0,1,.253-1.188,3.352,3.352,0,0,1,.693-1.022,3.474,3.474,0,0,1,1.033-.716,2.967,2.967,0,0,1,2.138-.132,2.587,2.587,0,0,1,.86.452,2.5,2.5,0,0,1,.664.827,2.753,2.753,0,0,1,.267,1.279Zm2.976-.195a2.5,2.5,0,0,0,.029-.361v-.348a2.714,2.714,0,0,0-.094-.778,1.251,1.251,0,0,0-.26-.486.928.928,0,0,0-.4-.257,1.677,1.677,0,0,0-.513-.076,1.571,1.571,0,0,0-.809.188,1.4,1.4,0,0,0-.506.507,2.548,2.548,0,0,0-.282.737,5.586,5.586,0,0,0-.123.875Z" transform="translate(-768.198 -50.699)" fill="#9f9f9f"/>
      <path id="Path_19" data-name="Path 19" d="M1044.363,71.734a2.008,2.008,0,0,1-.448.243,1.717,1.717,0,0,1-.636.1,1.462,1.462,0,0,1-1-.285,1.493,1.493,0,0,1-.426-.8h-.029q-.058.125-.159.313a1.24,1.24,0,0,1-.311.361,1.744,1.744,0,0,1-.556.292,2.772,2.772,0,0,1-.881.118,2.9,2.9,0,0,1-.968-.132,1.593,1.593,0,0,1-.563-.327.942.942,0,0,1-.267-.438,1.762,1.762,0,0,1-.065-.452,1.341,1.341,0,0,1,.2-.778,1.48,1.48,0,0,1,.527-.465,3.58,3.58,0,0,1,.722-.285q.4-.111.8-.236.476-.152.787-.264a1.41,1.41,0,0,0,.484-.271.821.821,0,0,0,.239-.4,2.651,2.651,0,0,0,.065-.66,3.724,3.724,0,0,0-.044-.6,1.238,1.238,0,0,0-.159-.452.729.729,0,0,0-.332-.285,1.426,1.426,0,0,0-.578-.1,1.716,1.716,0,0,0-.787.159.544.544,0,0,0-.311.521,2.5,2.5,0,0,0,.043.466,2.068,2.068,0,0,1,.043.341.424.424,0,0,1-.145.327.6.6,0,0,1-.419.132q-.477,0-.592-.167a.736.736,0,0,1-.116-.431,1.248,1.248,0,0,1,.145-.584,1.486,1.486,0,0,1,.426-.494,2.15,2.15,0,0,1,.708-.34,3.471,3.471,0,0,1,.975-.125,3.345,3.345,0,0,1,1.112.16,1.937,1.937,0,0,1,.722.431,1.564,1.564,0,0,1,.39.612,2.212,2.212,0,0,1,.115.716v3.461a.816.816,0,0,0,.13.542.489.489,0,0,0,.376.139,1.081,1.081,0,0,0,.332-.056,1.224,1.224,0,0,0,.332-.167Zm-2.528-3.253h-.029q-.029.181-.477.362l-1.083.417a1.576,1.576,0,0,0-.708.508,1.312,1.312,0,0,0-.246.813,2.237,2.237,0,0,0,.043.431,1.076,1.076,0,0,0,.159.4.865.865,0,0,0,.325.285,1.147,1.147,0,0,0,.542.111,1.383,1.383,0,0,0,.773-.195,1.291,1.291,0,0,0,.448-.486,2,2,0,0,0,.2-.632,4.227,4.227,0,0,0,.051-.618Z" transform="translate(-791.158 -50.699)" fill="#9f9f9f"/>
      <path id="Path_20" data-name="Path 20" d="M1065.808,60.117h1.113V58.324q.115.042.217.07a1.462,1.462,0,0,0,.347.028,1.283,1.283,0,0,0,.376-.049.959.959,0,0,0,.3-.16v1.9h2.051v.195h-2.051v4.545a2.078,2.078,0,0,0,.079.632.941.941,0,0,0,.209.375.628.628,0,0,0,.282.174,1.11,1.11,0,0,0,.3.042,1.034,1.034,0,0,0,.816-.354,1.687,1.687,0,0,0,.4-.813l.2.07a3.115,3.115,0,0,1-.13.4,1.388,1.388,0,0,1-.737.757,1.743,1.743,0,0,1-.723.132,2.195,2.195,0,0,1-1.51-.4,1.492,1.492,0,0,1-.426-1.14v-4.42h-1.113Z" transform="translate(-812.314 -44.892)" fill="#9f9f9f"/>
      <path id="Path_21" data-name="Path 21" d="M1089.194,68.44q0,.139-.007.285t-.007.368a8.327,8.327,0,0,0,.058.959,2.794,2.794,0,0,0,.253.9,1.7,1.7,0,0,0,.578.667,1.763,1.763,0,0,0,1.019.264,2.617,2.617,0,0,0,1.047-.181,1.92,1.92,0,0,0,.65-.438,1.889,1.889,0,0,0,.354-.521q.116-.264.173-.431l.217.041a3.907,3.907,0,0,1-.166.438,2.01,2.01,0,0,1-.39.57,2.369,2.369,0,0,1-.722.5,2.766,2.766,0,0,1-1.177.216,3.9,3.9,0,0,1-1.336-.222,3.067,3.067,0,0,1-1.062-.64,2.88,2.88,0,0,1-.693-.994,3.246,3.246,0,0,1-.245-1.286,2.929,2.929,0,0,1,.253-1.188,3.354,3.354,0,0,1,.694-1.022,3.473,3.473,0,0,1,1.033-.716,2.967,2.967,0,0,1,2.138-.132,2.587,2.587,0,0,1,.86.452,2.5,2.5,0,0,1,.665.827,2.752,2.752,0,0,1,.267,1.279Zm2.976-.195a2.482,2.482,0,0,0,.029-.361v-.348a2.716,2.716,0,0,0-.094-.778,1.25,1.25,0,0,0-.26-.486.929.929,0,0,0-.4-.257,1.677,1.677,0,0,0-.513-.076,1.571,1.571,0,0,0-.809.188,1.4,1.4,0,0,0-.506.507,2.543,2.543,0,0,0-.282.737,5.578,5.578,0,0,0-.123.875Z" transform="translate(-829.026 -50.699)" fill="#9f9f9f"/>
      <path id="Path_22" data-name="Path 22" d="M1133.472,71.787h1.112V66.214h-1.112v-.195h2.326v1.459h.029a2.427,2.427,0,0,1,.874-1.223,2.39,2.39,0,0,1,1.38-.389,2.614,2.614,0,0,1,1.279.306,1.5,1.5,0,0,1,.729,1.015h.029a2.235,2.235,0,0,1,.275-.486,1.922,1.922,0,0,1,.433-.424,2.146,2.146,0,0,1,.614-.3,2.679,2.679,0,0,1,.8-.111,1.848,1.848,0,0,1,2.109,2.071v3.85h1.112v.195H1142v-.195h1.112V67.061a.919.919,0,0,0-1-1,2.094,2.094,0,0,0-.722.132,1.906,1.906,0,0,0-1.12,1.077,2.429,2.429,0,0,0-.181.973v3.544h1.112v.195h-3.467v-.195h1.113V67.256a1.329,1.329,0,0,0-.26-.9.882.882,0,0,0-.693-.292,1.786,1.786,0,0,0-.665.146,2,2,0,0,0-.672.459,2.511,2.511,0,0,0-.52.813,3.169,3.169,0,0,0-.21,1.223v3.086h1.113v.195h-3.467Z" transform="translate(-863.885 -50.794)" fill="#9f9f9f"/>
      <path id="Path_23" data-name="Path 23" d="M1187.835,68.912a2.648,2.648,0,0,1,.311-1.265,3.533,3.533,0,0,1,.794-1.008,3.688,3.688,0,0,1,1.084-.66,3.048,3.048,0,0,1,2.355,0,3.693,3.693,0,0,1,1.084.66,3.54,3.54,0,0,1,.794,1.008,2.654,2.654,0,0,1,.311,1.265,2.715,2.715,0,0,1-.289,1.23,3.456,3.456,0,0,1-.759,1.008,3.609,3.609,0,0,1-1.076.681,3.208,3.208,0,0,1-2.485,0,3.608,3.608,0,0,1-1.076-.681,3.436,3.436,0,0,1-.758-1.008,2.7,2.7,0,0,1-.289-1.23m1.445,0a6.192,6.192,0,0,0,.159,1.57,2.365,2.365,0,0,0,.419.9,1.207,1.207,0,0,0,.607.41,2.839,2.839,0,0,0,1.473,0,1.209,1.209,0,0,0,.607-.41,2.372,2.372,0,0,0,.419-.9,6.186,6.186,0,0,0,.159-1.57,7.108,7.108,0,0,0-.115-1.4,2.56,2.56,0,0,0-.354-.917,1.355,1.355,0,0,0-.6-.508,2.454,2.454,0,0,0-1.705,0,1.351,1.351,0,0,0-.6.508,2.551,2.551,0,0,0-.354.917,7.071,7.071,0,0,0-.115,1.4" transform="translate(-905.318 -50.699)" fill="#9f9f9f"/>
      <path id="Path_24" data-name="Path 24" d="M1220.513,71.787h1.113V66.214h-1.113v-.195h2.326v1.4h.029a2.78,2.78,0,0,1,.188-.473,2.085,2.085,0,0,1,.917-.917,1.707,1.707,0,0,1,.787-.167,1.472,1.472,0,0,1,.578.1,1.261,1.261,0,0,1,.4.264.965.965,0,0,1,.231.368,1.271,1.271,0,0,1,.072.417.708.708,0,0,1-.217.612.854.854,0,0,1-.506.153q-.636,0-.635-.389a.574.574,0,0,1,.029-.2c.019-.051.041-.1.065-.153a1.258,1.258,0,0,0,.065-.174,1.038,1.038,0,0,0,.029-.278q0-.444-.506-.445a.92.92,0,0,0-.491.167,1.778,1.778,0,0,0-.484.486,3,3,0,0,0-.375.771,3.241,3.241,0,0,0-.152,1.036v3.183h1.257v.195h-3.612Z" transform="translate(-930.224 -50.794)" fill="#9f9f9f"/>
      <path id="Path_25" data-name="Path 25" d="M1247.787,68.44c0,.093,0,.188-.007.285s-.007.22-.007.368a8.3,8.3,0,0,0,.058.959,2.791,2.791,0,0,0,.253.9,1.7,1.7,0,0,0,.578.667,1.761,1.761,0,0,0,1.018.264,2.618,2.618,0,0,0,1.047-.181,1.922,1.922,0,0,0,.65-.438,1.891,1.891,0,0,0,.354-.521q.116-.264.173-.431l.217.041a3.859,3.859,0,0,1-.166.438,2.01,2.01,0,0,1-.39.57,2.37,2.37,0,0,1-.722.5,2.765,2.765,0,0,1-1.177.216,3.906,3.906,0,0,1-1.337-.222,3.069,3.069,0,0,1-1.062-.64,2.88,2.88,0,0,1-.693-.994,3.246,3.246,0,0,1-.245-1.286,2.929,2.929,0,0,1,.253-1.188,3.35,3.35,0,0,1,.693-1.022,3.473,3.473,0,0,1,1.033-.716,2.967,2.967,0,0,1,2.138-.132,2.584,2.584,0,0,1,.86.452,2.5,2.5,0,0,1,.665.827,2.754,2.754,0,0,1,.267,1.279Zm2.976-.195a2.5,2.5,0,0,0,.029-.361v-.348a2.716,2.716,0,0,0-.094-.778,1.248,1.248,0,0,0-.26-.486.927.927,0,0,0-.4-.257,1.675,1.675,0,0,0-.513-.076,1.571,1.571,0,0,0-.809.188,1.4,1.4,0,0,0-.506.507,2.55,2.55,0,0,0-.282.737,5.607,5.607,0,0,0-.123.875Z" transform="translate(-949.899 -50.699)" fill="#9f9f9f"/>
      <path id="Path_26" data-name="Path 26" d="M1276.759,87.557a.7.7,0,0,1,.224-.521.789.789,0,0,1,1.084,0,.719.719,0,0,1,0,1.042.788.788,0,0,1-1.084,0,.7.7,0,0,1-.224-.521" transform="translate(-973.092 -66.953)" fill="#9f9f9f"/>
    </g>
  </g>
</svg>
